solid Shape
facet normal -0.873305 -0.48717 -0
    outer loop
        vertex 1 0 0
        vertex 1 0 20
        vertex 0.525322 0.8509 0
    endloop
endfacet
facet normal -0.873305 -0.48717 -0
    outer loop
        vertex 0.525322 0.8509 0
        vertex 1 0 20
        vertex 0.525322 0.8509 20
    endloop
endfacet
facet normal -0.0442276 -0.99902 -0
    outer loop
        vertex 0.525322 0.8509 0
        vertex 0.525322 0.8509 20
        vertex -0.448074 0.894 0
    endloop
endfacet
facet normal -0.0442276 -0.99902 -0
    outer loop
        vertex -0.448074 0.894 0
        vertex 0.525322 0.8509 20
        vertex -0.448074 0.894 20
    endloop
endfacet
facet normal 0.826837 -0.56244 0
    outer loop
        vertex -0.448074 0.894 0
        vertex -0.448074 0.894 20
        vertex -0.996088 0.088369 0
    endloop
endfacet
facet normal 0.826837 -0.56244 0
    outer loop
        vertex -0.996088 0.088369 0
        vertex -0.448074 0.894 20
        vertex -0.996088 0.088369 20
    endloop
endfacet
facet normal 0.912939 0.4081 0
    outer loop
        vertex -0.996088 0.088369 0
        vertex -0.996088 0.088369 20
        vertex -0.59846 -0.80115 0
    endloop
endfacet
facet normal 0.912939 0.4081 0
    outer loop
        vertex -0.59846 -0.80115 0
        vertex -0.996088 0.088369 20
        vertex -0.59846 -0.80115 20
    endloop
endfacet
facet normal 0.132337 0.9912 0
    outer loop
        vertex -0.59846 -0.80115 0
        vertex -0.59846 -0.80115 20
        vertex 0.367319 -0.93009 0
    endloop
endfacet
facet normal 0.132337 0.9912 0
    outer loop
        vertex 0.367319 -0.93009 0
        vertex -0.59846 -0.80115 20
        vertex 0.367319 -0.93009 20
    endloop
endfacet
facet normal -0.7739 0.63331 0
    outer loop
        vertex 0.367319 -0.93009 0
        vertex 0.367319 -0.93009 20
        vertex 0.984382 -0.17605 0
    endloop
endfacet
facet normal -0.7739 0.63331 0
    outer loop
        vertex 0.984382 -0.17605 0
        vertex 0.367319 -0.93009 20
        vertex 0.984382 -0.17605 20
    endloop
endfacet
facet normal -0.94543 -0.32582 -0
    outer loop
        vertex 0.984382 -0.17605 0
        vertex 0.984382 -0.17605 20
        vertex 0.666916 0.74513 0
    endloop
endfacet
facet normal -0.94543 -0.32582 -0
    outer loop
        vertex 0.666916 0.74513 0
        vertex 0.984382 -0.17605 20
        vertex 0.666916 0.74513 20
    endloop
endfacet
facet normal 0.912939 0.4081 0
    outer loop
        vertex 0.666916 0.74513 0
        vertex 0.666916 0.74513 20
        vertex 1 0 0
    endloop
endfacet
facet normal 0.912939 0.4081 0
    outer loop
        vertex 1 0 0
        vertex 0.666916 0.74513 20
        vertex 1 0 20
    endloop
endfacet

endsolid Shape
