solid Shape
facet normal -170.181 -94.936 -0
    outer loop
        vertex 10 0 0
        vertex 10 0 20
        vertex 5.25322 8.509 0
    endloop
endfacet
facet normal -170.181 -94.936 -0
    outer loop
        vertex 5.25322 8.509 0
        vertex 10 0 20
        vertex 5.25322 8.509 20
    endloop
endfacet
facet normal -8.61863 -194.68 -0
    outer loop
        vertex 5.25322 8.509 0
        vertex 5.25322 8.509 20
        vertex -4.48074 8.94 0
    endloop
endfacet
facet normal -8.61863 -194.68 -0
    outer loop
        vertex -4.48074 8.94 0
        vertex 5.25322 8.509 20
        vertex -4.48074 8.94 20
    endloop
endfacet
facet normal 161.126 -109.6 0
    outer loop
        vertex -4.48074 8.94 0
        vertex -4.48074 8.94 20
        vertex -9.96088 0.88369 0
    endloop
endfacet
facet normal 161.126 -109.6 0
    outer loop
        vertex -9.96088 0.88369 0
        vertex -4.48074 8.94 20
        vertex -9.96088 0.88369 20
    endloop
endfacet
facet normal 177.904 79.526 0
    outer loop
        vertex -9.96088 0.88369 0
        vertex -9.96088 0.88369 20
        vertex -5.9846 -8.0115 0
    endloop
endfacet
facet normal 177.904 79.526 0
    outer loop
        vertex -5.9846 -8.0115 0
        vertex -9.96088 0.88369 20
        vertex -5.9846 -8.0115 20
    endloop
endfacet
facet normal 25.7884 193.16 0
    outer loop
        vertex -5.9846 -8.0115 0
        vertex -5.9846 -8.0115 20
        vertex 3.67319 -9.3009 0
    endloop
endfacet
facet normal 25.7884 193.16 0
    outer loop
        vertex 3.67319 -9.3009 0
        vertex -5.9846 -8.0115 20
        vertex 3.67319 -9.3009 20
    endloop
endfacet
facet normal -150.81 123.41 0
    outer loop
        vertex 3.67319 -9.3009 0
        vertex 3.67319 -9.3009 20
        vertex 9.84382 -1.7605 0
    endloop
endfacet
facet normal -150.81 123.41 0
    outer loop
        vertex 9.84382 -1.7605 0
        vertex 3.67319 -9.3009 20
        vertex 9.84382 -1.7605 20
    endloop
endfacet
facet normal -184.236 -63.493 -0
    outer loop
        vertex 9.84382 -1.7605 0
        vertex 9.84382 -1.7605 20
        vertex 6.66916 7.4513 0
    endloop
endfacet
facet normal -184.236 -63.493 -0
    outer loop
        vertex 6.66916 7.4513 0
        vertex 9.84382 -1.7605 20
        vertex 6.66916 7.4513 20
    endloop
endfacet
facet normal 149.027 66.617 0
    outer loop
        vertex 6.66916 7.4513 0
        vertex 6.66916 7.4513 20
        vertex 10 0 0
    endloop
endfacet
facet normal 149.027 66.617 0
    outer loop
        vertex 10 0 0
        vertex 6.66916 7.4513 20
        vertex 10 0 20
    endloop
endfacet

endsolid Shape
